<svg width="352" height="810" viewBox="0 0 352 810" fill="none" xmlns="http://www.w3.org/2000/svg">
<path d="M351 2V1H350H10C5.02944 1 1 5.02942 1 9.99999V800C1 804.971 5.02943 809 10 809H350H351V808V2Z" fill="url(#paint0_linear_3317_11859)" fill-opacity="0.1"/>
<path d="M351 2V1H350H10C5.02944 1 1 5.02942 1 9.99999V800C1 804.971 5.02943 809 10 809H350H351V808V2Z" stroke="url(#paint1_radial_3317_11859)" stroke-width="2"/>
<path d="M351 2V1H350H10C5.02944 1 1 5.02942 1 9.99999V800C1 804.971 5.02943 809 10 809H350H351V808V2Z" stroke="url(#paint2_radial_3317_11859)" stroke-width="2"/>
<path d="M351 2V1H350H10C5.02944 1 1 5.02942 1 9.99999V800C1 804.971 5.02943 809 10 809H350H351V808V2Z" stroke="url(#paint3_radial_3317_11859)" stroke-width="2"/>
<defs>
<linearGradient id="paint0_linear_3317_11859" x1="248.296" y1="555.335" x2="382.961" y2="574.267" gradientUnits="userSpaceOnUse">
<stop offset="0.0303834" stop-color="white" stop-opacity="0.4"/>
<stop offset="0.960276" stop-color="white" stop-opacity="0"/>
</linearGradient>
<radialGradient id="paint1_radial_3317_11859" cx="0" cy="0" r="1" gradientUnits="userSpaceOnUse" gradientTransform="translate(350.103 808) rotate(-180) scale(341.052 401.907)">
<stop stop-color="#8C33A3"/>
<stop offset="1" stop-color="#33A36D" stop-opacity="0.05"/>
</radialGradient>
<radialGradient id="paint2_radial_3317_11859" cx="0" cy="0" r="1" gradientUnits="userSpaceOnUse" gradientTransform="translate(2 2) scale(84.2424 316.065)">
<stop stop-color="white" stop-opacity="0.81"/>
<stop offset="1" stop-color="white" stop-opacity="0.19"/>
</radialGradient>
<radialGradient id="paint3_radial_3317_11859" cx="0" cy="0" r="1" gradientUnits="userSpaceOnUse" gradientTransform="translate(350.103 2) rotate(90) scale(323.206 73.757)">
<stop stop-opacity="0.5"/>
<stop offset="1" stop-opacity="0"/>
</radialGradient>
</defs>
</svg>
