<svg width="100" height="31" viewBox="0 0 100 31" fill="none" xmlns="http://www.w3.org/2000/svg">
<g filter="url(#filter0_b_3375_11764)">
<path d="M97.4482 7.35804C99.0243 8.24314 100 9.91001 100 11.7176V26C100 28.7614 97.7614 31 95 31L5 31C2.23858 31 0 28.7614 0 26V5C0 2.23858 2.23859 0 5.00001 0L83.0379 0C83.8954 0 84.7385 0.220532 85.4862 0.640404L97.4482 7.35804Z" fill="#FDFDFD" fill-opacity="0.1"/>
<path d="M97.4482 7.35804C99.0243 8.24314 100 9.91001 100 11.7176V26C100 28.7614 97.7614 31 95 31L5 31C2.23858 31 0 28.7614 0 26V5C0 2.23858 2.23859 0 5.00001 0L83.0379 0C83.8954 0 84.7385 0.220532 85.4862 0.640404L97.4482 7.35804Z" fill="#4628FF" fill-opacity="0.15"/>
<path d="M99.5 11.7176C99.5 10.0908 98.6219 8.59059 97.2034 7.794L85.2413 1.07636C84.5684 0.698478 83.8097 0.5 83.0379 0.5L5.00001 0.5C2.51472 0.5 0.5 2.51472 0.5 5V26C0.5 28.4853 2.51472 30.5 5 30.5L95 30.5C97.4853 30.5 99.5 28.4853 99.5 26V11.7176Z" stroke="url(#paint0_linear_3375_11764)"/>
</g>
<defs>
<filter id="filter0_b_3375_11764" x="-80" y="-80" width="260" height="191" filterUnits="userSpaceOnUse" color-interpolation-filters="sRGB">
<feFlood flood-opacity="0" result="BackgroundImageFix"/>
<feGaussianBlur in="BackgroundImageFix" stdDeviation="40"/>
<feComposite in2="SourceAlpha" operator="in" result="effect1_backgroundBlur_3375_11764"/>
<feBlend mode="normal" in="SourceGraphic" in2="effect1_backgroundBlur_3375_11764" result="shape"/>
</filter>
<linearGradient id="paint0_linear_3375_11764" x1="100" y1="15.4864" x2="0" y2="15.4864" gradientUnits="userSpaceOnUse">
<stop stop-color="#636363"/>
<stop offset="0.26" stop-color="#E1E1E1"/>
<stop offset="0.37" stop-color="white"/>
<stop offset="0.48" stop-color="#DFDFDF"/>
<stop offset="0.52" stop-color="#B1B1B1"/>
<stop offset="0.57" stop-color="#8E8E8E"/>
<stop offset="0.61" stop-color="#747474"/>
<stop offset="0.64" stop-color="#646464"/>
<stop offset="0.67" stop-color="#5F5F5F"/>
<stop offset="0.71" stop-color="#656565"/>
<stop offset="0.76" stop-color="#767676"/>
<stop offset="0.82" stop-color="#939393"/>
<stop offset="0.89" stop-color="#BABABA"/>
<stop offset="0.92" stop-color="#D3D3D3"/>
<stop offset="0.94" stop-color="#DBDBDB"/>
<stop offset="1" stop-color="#F3F3F3"/>
</linearGradient>
</defs>
</svg>
