<svg width="20" height="192" viewBox="0 0 20 192" fill="none" xmlns="http://www.w3.org/2000/svg">
<path d="M0 118.857C0 115.962 0.148148 113.676 0.444445 112C0.740741 110.171 1.11111 108.724 1.55556 107.657C2.07407 106.438 2.66667 105.524 3.33333 104.914C4 104.152 4.74074 103.467 5.55556 102.857C6.2963 102.248 7 101.638 7.66667 101.029C8.40741 100.419 9 99.581 9.44444 98.5143C9.96296 97.2952 10.3704 95.7714 10.6667 93.9429C10.963 92.1143 11.1111 89.7524 11.1111 86.8571V13.7143C11.1111 7.92381 11.4074 4.19048 12 2.51428C12.6667 0.838093 13.8519 0 15.5556 0C17.2593 0 18.4074 0.838093 19 2.51428C19.6667 4.19048 20 7.92381 20 13.7143V173.714C20 177.676 19.8889 180.876 19.6667 183.314C19.5185 185.752 19.1111 187.657 18.4444 189.029C17.8519 190.248 16.963 191.086 15.7778 191.543C14.5926 191.848 13.037 192 11.1111 192H8.88889C6.96296 192 5.40741 191.848 4.22222 191.543C3.03704 191.086 2.11111 190.248 1.44444 189.029C0.851852 187.657 0.444445 185.752 0.222222 183.314C0.0740743 180.876 0 177.676 0 173.714V118.857Z" fill="url(#paint0_linear_1141_4349)"/>
<defs>
<linearGradient id="paint0_linear_1141_4349" x1="0" y1="95.9157" x2="20" y2="95.9157" gradientUnits="userSpaceOnUse">
<stop stop-color="#636363"/>
<stop offset="0.26" stop-color="#E1E1E1"/>
<stop offset="0.37" stop-color="white"/>
<stop offset="0.48" stop-color="#DFDFDF"/>
<stop offset="0.52" stop-color="#B1B1B1"/>
<stop offset="0.57" stop-color="#8E8E8E"/>
<stop offset="0.61" stop-color="#747474"/>
<stop offset="0.64" stop-color="#646464"/>
<stop offset="0.67" stop-color="#5F5F5F"/>
<stop offset="0.71" stop-color="#656565"/>
<stop offset="0.76" stop-color="#767676"/>
<stop offset="0.82" stop-color="#939393"/>
<stop offset="0.89" stop-color="#BABABA"/>
<stop offset="0.92" stop-color="#D3D3D3"/>
<stop offset="0.94" stop-color="#DBDBDB"/>
<stop offset="1" stop-color="#F3F3F3"/>
</linearGradient>
</defs>
</svg>
