<svg width="20" height="92" viewBox="0 0 20 92" fill="none" xmlns="http://www.w3.org/2000/svg">
<path d="M20 56.9524C20 55.5651 19.8519 54.4698 19.5556 53.6667C19.2593 52.7905 18.8889 52.0968 18.4444 51.5857C17.9259 51.0016 17.3333 50.5635 16.6667 50.2714C16 49.9063 15.2593 49.5778 14.4444 49.2857C13.7037 48.9937 13 48.7016 12.3333 48.4095C11.5926 48.1175 11 47.7159 10.5556 47.2048C10.037 46.6206 9.62963 45.8905 9.33333 45.0143C9.03704 44.1381 8.88889 43.0063 8.88889 41.619V6.57143C8.88889 3.79683 8.59259 2.00794 8 1.20476C7.33333 0.401586 6.14815 0 4.44445 0C2.74074 0 1.59259 0.401586 1 1.20476C0.333336 2.00794 0 3.79683 0 6.57143V83.2381C0 85.1365 0.111111 86.6698 0.333334 87.8381C0.481482 89.0063 0.888889 89.919 1.55556 90.5762C2.14815 91.1603 3.03704 91.5619 4.22222 91.7809C5.40741 91.927 6.96296 92 8.88889 92H11.1111C13.037 92 14.5926 91.927 15.7778 91.7809C16.963 91.5619 17.8889 91.1603 18.5556 90.5762C19.1481 89.919 19.5556 89.0063 19.7778 87.8381C19.9259 86.6698 20 85.1365 20 83.2381V56.9524Z" fill="url(#paint0_linear_3317_11896)"/>
<defs>
<linearGradient id="paint0_linear_3317_11896" x1="20" y1="45.9596" x2="0" y2="45.9596" gradientUnits="userSpaceOnUse">
<stop stop-color="#636363"/>
<stop offset="0.26" stop-color="#E1E1E1"/>
<stop offset="0.37" stop-color="white"/>
<stop offset="0.48" stop-color="#DFDFDF"/>
<stop offset="0.52" stop-color="#B1B1B1"/>
<stop offset="0.57" stop-color="#8E8E8E"/>
<stop offset="0.61" stop-color="#747474"/>
<stop offset="0.64" stop-color="#646464"/>
<stop offset="0.67" stop-color="#5F5F5F"/>
<stop offset="0.71" stop-color="#656565"/>
<stop offset="0.76" stop-color="#767676"/>
<stop offset="0.82" stop-color="#939393"/>
<stop offset="0.89" stop-color="#BABABA"/>
<stop offset="0.92" stop-color="#D3D3D3"/>
<stop offset="0.94" stop-color="#DBDBDB"/>
<stop offset="1" stop-color="#F3F3F3"/>
</linearGradient>
</defs>
</svg>
