<svg width="67" height="65" viewBox="0 0 67 65" fill="none" xmlns="http://www.w3.org/2000/svg">
<path d="M60.0378 6.65022L50.8279 2.57195L60.0378 -1.50633L64.2033 -10.5234L68.3687 -1.50633L77.5787 2.57195L68.3687 6.65022L64.2033 15.6673L60.0378 6.65022ZM74.8272 29.5859L71.8464 23.1504L68.8655 29.5859L62.2925 32.5043L68.8655 35.4227L71.8464 41.8581L74.8272 35.4227L81.4002 32.5043L74.8272 29.5859ZM55.5666 35.7594L62.9804 41.2595L53.4265 57.4603L44.8663 53.9433C44.102 54.4297 43.2612 54.9161 42.4205 55.3276L41.274 64.3073H22.1663L21.0198 55.2902C20.1791 54.8787 19.3766 54.4297 18.5741 53.9058L10.0138 57.4229L0.459961 41.222L7.87375 35.722C7.83554 35.3104 7.83554 34.824 7.83554 34.375C7.83554 33.926 7.83554 33.4396 7.87375 32.9907L0.459961 27.4906L10.0138 11.2897L18.5741 14.8068C19.3384 14.3204 20.1791 13.834 21.0198 13.4224L22.1663 4.44272H41.274L42.4205 13.4598C43.2612 13.8714 44.0637 14.3204 44.8663 14.8442L53.4265 11.3271L62.9804 27.528L55.5666 33.0281C55.6048 33.4771 55.6048 33.926 55.6048 34.4124C55.6048 34.8988 55.6048 35.3104 55.5666 35.7594ZM43.1848 34.375C43.1848 28.1641 38.0639 23.1504 31.7202 23.1504C25.3764 23.1504 20.2555 28.1641 20.2555 34.375C20.2555 40.586 25.3764 45.5996 31.7202 45.5996C38.0639 45.5996 43.1848 40.586 43.1848 34.375Z" fill="white"/>
</svg>
